<svg xmlns="http://www.w3.org/2000/svg" width="550" height="256" viewBox="0 0 550 256">
  <!-- Primer ícono (Bug) -->
  <svg x="0" y="0" width="256" height="256" viewBox="0 0 256 256">
    <defs>
      <style>
        .cls-bug-bg { fill: #9f9f28; } /* Verde para Bug */
        .cls-bug-icon { fill: #fff; }
      </style>
    </defs>
    <circle class="cls-bug-bg" cx="128" cy="128" r="128"/>
    <path class="cls-bug-icon" d="M57.84,144.71c-.01-17.4,1.6-28.85,6.39-39.68,3.81-8.63,8.14-10.12,15.18-4.54,9.56,7.57,20.13,12.71,32,15.35,6.4,1.43,8.85,5.18,6.73,11.74-7.23,22.39-14.49,44.78-21.4,67.27-2.38,7.73-5.96,7.47-11.48,3.27-19.56-14.89-27.26-35.22-27.42-53.41Z"/>
    <path class="cls-bug-icon" d="M198.18,140.28c-.2,22.43-7.79,41.62-25.21,56.25-8.51,7.14-11.15,6.33-14.39-3.8-6.75-21.15-13.17-42.41-20.18-63.48-2.61-7.83-.79-11.92,7.38-13.71,11.17-2.45,21.18-7.45,30.21-14.58,7.71-6.09,11.86-4.82,15.86,4.29,4.91,11.17,6.33,22.98,6.33,35.02Z"/>
    <path class="cls-bug-icon" d="M127.91,105.03c-15.42,.42-28.7-4.76-40.56-14.1-6.17-4.85-7.07-9.34-1.07-15.53,23.76-24.54,59.04-24.66,83.13-.34,6.45,6.51,5.42,11.16-1.15,16.22-11.96,9.2-25.27,14.31-40.34,13.75Z"/>
    <path class="cls-bug-icon" d="M128.4,179.08c4.03-.22,7.65-.37,11.27-.64,4.75-.35,6.18,2.6,7.01,6.54,.84,3.97-.53,6.29-4.39,7.43-9.41,2.78-18.79,2.72-28.22,.13-4.4-1.21-5.59-3.84-4.63-8.17,.94-4.23,3.05-6.32,7.53-5.92,3.94,.35,7.89,.44,11.44,.63Z"/>
    <path class="cls-bug-icon" d="M127.89,170.73c-4.86-.9-12.01,1.45-11.66-7,.31-7.45,5.28-9.23,12.43-9.21,7.21,.02,11.05,3,11.1,9.52,.07,8.37-7.16,5.71-11.86,6.69Z"/>
  </svg>

  <!-- Segundo ícono (Poison) -->
  <svg x="270" y="0" width="256" height="256" viewBox="0 0 256 256">
    <defs>
      <style>
        .cls-poison-bg { fill: #9354cb; } /* Morado para Poison */
        .cls-poison-icon { fill: #fff; }
      </style>
    </defs>
    <circle class="cls-poison-bg" cx="128" cy="128" r="128"/>
    <circle class="cls-poison-icon" cx="159.37" cy="123.2" r="16.8"/>
    <circle class="cls-poison-icon" cx="102.45" cy="86.6" r="28.2"/>
    <path class="cls-poison-icon" d="M197.45,191.55c2.36-1.5,3.12-3.08,3.28-4.91,.05-.38,.08-.77,.08-1.18,0-.27-.03-.52-.06-.76-.16-2.7-1.26-4.54-8.23-6.81-1.21-.39-2.54-.78-3.97-1.17-7.9-2.37-15.56-3.78-24.24-4.53-3.43-.44-6.99-.84-10.63-1.18-1.71-.52-2.31-1.28-2.72-2.44-.55-2.95-1.65-5.7-3.19-8.15-3.79-6.49-9.84-10.25-17.82-10.82-.49-.04-.98-.07-1.48-.08-.04,0-.08,0-.12,0-.03,0-.05,0-.08,0-.09,0-.18,0-.27,0-.27,0-.53,.01-.8,.02-9.24,.17-16.18,4.64-19.99,12.7-.62,1.22-1.15,2.49-1.55,3.82-.93,2.47-1.59,3.97-3.63,4.86-4.92,.42-9.65,.95-14.1,1.57-4.28,.46-8.51,1.21-12.7,2.17-5.5,1.14-10.17,2.43-13.73,3.8-.53,.19-1.04,.4-1.54,.63-4.26,1.9-4.63,3.67-4.66,5.88-.02,.26-.05,.52-.04,.8,0,.16,.03,.31,.04,.47,.06,2.53,.72,4.56,5.71,6.64,.94,.41,1.93,.76,2.94,1.08,1.65,.55,3.48,1.08,5.48,1.59,8.46,2.29,17.02,3.57,25.62,4.37,10.22,1.13,21.52,1.79,32.87,1.8,0,0,0,0,.01,0,0,0,0,0,0,0,.03,0,.06,0,.09,0,10.47,0,20.99-.59,30.65-1.59,10.15-.84,20.2-2.3,30.08-5.18,.46-.13,.91-.26,1.35-.39,.09-.03,.17-.05,.26-.08,2.29-.71,4.79-1.49,6.76-2.73,.08-.05,.16-.1,.25-.15,.02-.02,.05-.03,.07-.05Z"/>
  </svg>
</svg>
