<svg xmlns="http://www.w3.org/2000/svg" width="2048" height="1024" viewBox="0 0 2048 1024">
  <!-- Primer ícono (Bug) -->
  <svg x="200" y="100" width="800" height="800" viewBox="0 0 256 256">
    <defs>
      <style>
        .cls-bug-bg { fill: #9f9f28; } /* Fondo Bug */
        .cls-bug-icon { fill: #fff; }  /* Color del ícono */
      </style>
    </defs>
    <circle class="cls-bug-bg" cx="128" cy="128" r="128"/>
    <path class="cls-bug-icon" d="M57.84,144.71c-.01-17.4,1.6-28.85,6.39-39.68,3.81-8.63,8.14-10.12,15.18-4.54,9.56,7.57,20.13,12.71,32,15.35,6.4,1.43,8.85,5.18,6.73,11.74-7.23,22.39-14.49,44.78-21.4,67.27-2.38,7.73-5.96,7.47-11.48,3.27-19.56-14.89-27.26-35.22-27.42-53.41Z"/>
    <path class="cls-bug-icon" d="M198.18,140.28c-.2,22.43-7.79,41.62-25.21,56.25-8.51,7.14-11.15,6.33-14.39-3.8-6.75-21.15-13.17-42.41-20.18-63.48-2.61-7.83-.79-11.92,7.38-13.71,11.17-2.45,21.18-7.45,30.21-14.58,7.71-6.09,11.86-4.82,15.86,4.29,4.91,11.17,6.33,22.98,6.33,35.02Z"/>
    <path class="cls-bug-icon" d="M127.91,105.03c-15.42,.42-28.7-4.76-40.56-14.1-6.17-4.85-7.07-9.34-1.07-15.53,23.76-24.54,59.04-24.66,83.13-.34,6.45,6.51,5.42,11.16-1.15,16.22-11.96,9.2-25.27,14.31-40.34,13.75Z"/>
    <path class="cls-bug-icon" d="M128.4,179.08c4.03-.22,7.65-.37,11.27-.64,4.75-.35,6.18,2.6,7.01,6.54,.84,3.97-.53,6.29-4.39,7.43-9.41,2.78-18.79,2.72-28.22,.13-4.4-1.21-5.59-3.84-4.63-8.17,.94-4.23,3.05-6.32,7.53-5.92,3.94,.35,7.89,.44,11.44,.63Z"/>
    <path class="cls-bug-icon" d="M127.89,170.73c-4.86-.9-12.01,1.45-11.66-7,.31-7.45,5.28-9.23,12.43-9.21,7.21,.02,11.05,3,11.1,9.52,.07,8.37-7.16,5.71-11.86,6.69Z"/>
  </svg>

  <!-- Segundo ícono (Grass) -->
  <svg x="1048" y="100" width="800" height="800" viewBox="0 0 256 256">
    <defs>
      <style>
        .cls-grass-bg { fill: #439837; } /* Fondo Grass */
        .cls-grass-icon { fill: #fff; }  /* Color del ícono */
      </style>
    </defs>
    <circle class="cls-grass-bg" cx="128" cy="128" r="128"/>
    <path class="cls-grass-icon" d="M194.3,86.12c2.2-2.13,1.76,4.2,1.52,6.15-4.07,32.61-8.97,65.08-16.15,97.16-1.92,8.61-3.33,9.71-12.1,9.84-9.68,.14-19.35,.06-28.95,.04-1.7,0-2.85-1.73-2.2-3.3,15.94-38.11,37.34-90.03,57.88-109.89Z"/>
    <path class="cls-grass-icon" d="M121.47,180.64c-.83-23.74,2.05-37.16,5.01-68.66,.12-1.32,.59-2.57,1.15-3.77,3.53-7.48,17.34-36.24,25.36-46.17,1.68-2.08,5.01-.95,5.18,1.71,.11,1.78,.04,3.44-.03,5.22-.89,20.31-3.29,40.49-6.19,60.6-.56,3.86-2.22,7.68-3.97,11.23-5.73,11.62,1.08-2.28-17.76,34.57-1.19,2.34-2.12,5.3-4.33,6.98-1.8,1.37-4.34,.55-4.42-1.7Z"/>
    <path class="cls-grass-icon" d="M116.82,86.12c2.2-2.13,1.76,4.2,1.52,6.15-4.07,32.61-8.97,65.08-16.15,97.16-1.92,8.61-3.33,9.71-12.1,9.84-9.68,.14-19.35,.06-28.95,.04-1.7,0-2.85-1.73-2.2-3.3,15.94-38.11,37.34-90.03,57.88-109.89Z"/>
  </svg>
</svg>
