<svg xmlns="http://www.w3.org/2000/svg" width="2048" height="1024" viewBox="0 0 2048 1024">
  <!-- Primer ícono (Dragon) -->
  <svg x="200" y="100" width="800" height="800" viewBox="0 0 256 256">
    <defs>
      <style>
        .cls-dragon-bg { fill: #576fbc; } /* Azul para Dragon */
        .cls-dragon-icon { fill: #fff; }
      </style>
    </defs>
    <circle class="cls-dragon-bg" cx="128" cy="128" r="128"/>
    <path class="cls-dragon-icon" d="M170.93,124.41c.8,15.21-5.05,28.07-14.96,38.95-4.86,5.34-7.13,10.82-7.01,17.85,.07,4.3-.64,8.63-1.21,12.91-1.48,11.17-7.97,16.55-19.79,16.53-11.81-.02-18.2-5.38-19.75-16.59-.18-1.32-.43-2.65-.42-3.97,.07-12.31-3.37-22.68-11.93-32.43-14.25-16.22-14.56-45.3-2.66-60.49,5.82-7.42,4.65-17.14,7.55-25.58,2.37-6.9,4.02-14.05,6.07-21.06,.48-1.65,1.51-3.06,3.48-3,2.02,.06,2.71,1.6,3.11,3.3,1.8,7.77,4.05,15.47,5.23,23.33,.95,6.31,4.94,5.95,9.39,5.97,4.5,.02,8.42,.25,9.35-6.03,1.11-7.53,3.32-14.9,5.03-22.34,.45-1.96,.74-4.19,3.34-4.19,2.43,0,3.15,1.99,3.71,4,1.88,6.72,3.88,13.4,5.7,20.14,3.01,11.13,4.22,22.74,11.59,32.51,4.31,5.71,3.98,13.22,4.18,20.21Z"/>
    <path class="cls-dragon-icon" d="M194.2,95.93c16.78,17.37,18.87,64.53-8.22,85.49-5.83-6.35-8.44-14.77-13.52-21.58-.65-.87-.74-2.88-.18-3.82,5.41-9,4.95-20.46,12.96-28.54,7.84-7.92,9.39-18.61,8.97-31.55Z"/>
    <path class="cls-dragon-bg" d="M141.47,153.95c6.61-10.7,12.32-19.93,18.62-30.12,5.76,18.39-.34,28.8-18.62,30.12Z"/>
    <path class="cls-dragon-icon" d="M61.68,95.93c-16.78,17.37-18.87,64.53,8.22,85.49,5.83-6.35,8.44-14.77,13.52-21.58,.65-.87,.74-2.88,.18-3.82-5.41-9-4.95-20.46-12.96-28.54-7.84-7.92-9.39-18.61-8.97-31.55Z"/>
    <path class="cls-dragon-bg" d="M115.46,153.95c-6.61-10.7-12.32-19.93-18.62-30.12-5.76,18.39,.34,28.8,18.62,30.12Z"/>
  </svg>

  <!-- Segundo ícono (Flying) -->
  <svg x="1048" y="100" width="800" height="800" viewBox="0 0 256 256">
    <defs>
      <style>
        .cls-flying-bg { fill: #74aad0; } /* Azul claro para Flying */
        .cls-flying-icon { fill: #fff; }
      </style>
    </defs>
    <circle class="cls-flying-bg" cx="128" cy="128" r="128"/>
    <path class="cls-flying-icon" d="M151.78,148.43c-15.72,18.66-36.72,18.54-56.82,20.49-.88,.09-1.72,.46-2.36,1.09-10.27,10.09-15.84,24.13-28,33.64-.55,.43-1.39,.2-1.63-.45-2.25-6.09-1.57-11.4-.81-16.39,4.26-28.02,11.13-55.4,21.88-81.66,5.83-14.23,15.13-24.51,31.59-27.2,24.36-3.98,47.33-13.03,70.58-20.97,2.96-1.01,6.05-1.96,9.13-.76,.97,.38,1.74,1.18,2.02,2.18,.91,3.25-.92,5.89-2.54,8.68-13.5,23.36-34.25,37.51-58.92,46.81-3.54,1.33-7.9,2.81-10.91,5.61-.32,.3-.08,.86,.35,.88,17.48,.74,32.76-5.7,48.82-9.24,.55-.12,1.04,.45,.84,.98-7.05,17.94-23.79,26.99-39.9,32.15-6.3,2.02-9.35,2.46-20.33,3.46-.37,.03-.41,.49-.11,.57,15.87,4,21.78-.55,36.34-1.55,.83-.06,1.3,1.02,.77,1.66Z"/>
  </svg>
</svg>
