<svg xmlns="http://www.w3.org/2000/svg" width="2048" height="1024" viewBox="0 0 2048 1024">
  <!-- Primer ícono (Electric) -->
  <svg x="200" y="100" width="800" height="800" viewBox="0 0 256 256">
    <defs>
      <style>
        .cls-electric-bg { fill: #dfbc28; } /* Amarillo para Electric */
        .cls-electric-icon { fill: #fff; }
      </style>
    </defs>
    <circle class="cls-electric-bg" cx="128" cy="128" r="128"/>
    <path class="cls-electric-icon" d="M112.94,205.87c-4.35-1.07-3.09-4.21-2.41-6.43,3.08-10.15,6.21-20.3,9.82-30.28,2.33-6.45,1.96-10.95-4.46-15.2-10.8-7.15-20.8-15.48-31.36-23-6.61-4.71-7.92-10.03-3.8-17.02,11.64-19.74,23.22-39.49,36.68-58.1,5.15-7.12,10.27-8.11,17.65-3.53,11.82,7.34,23.91,14.25,36.04,21.07,7.09,3.99,7.59,8.15,2.06,14.06-8.19,8.74-15.62,18.2-24.02,26.73-5.23,5.31-4.13,8.76,.94,12.93,6.41,5.28,12.52,10.94,18.74,16.46,3.68,3.27,4.04,6.56,.24,10.13-17.7,16.64-35.35,33.33-53.04,49.98-.94,.89-2.12,1.53-3.08,2.21Z"/>
  </svg>

  <!-- Segundo ícono (Flying) -->
  <svg x="1048" y="100" width="800" height="800" viewBox="0 0 256 256">
    <defs>
      <style>
        .cls-flying-bg { fill: #74aad0; } /* Azul claro para Flying */
        .cls-flying-icon { fill: #fff; }
      </style>
    </defs>
    <circle class="cls-flying-bg" cx="128" cy="128" r="128"/>
    <path class="cls-flying-icon" d="M151.78,148.43c-15.72,18.66-36.72,18.54-56.82,20.49-.88,.09-1.72,.46-2.36,1.09-10.27,10.09-15.84,24.13-28,33.64-.55,.43-1.39,.2-1.63-.45-2.25-6.09-1.57-11.4-.81-16.39,4.26-28.02,11.13-55.4,21.88-81.66,5.83-14.23,15.13-24.51,31.59-27.2,24.36-3.98,47.33-13.03,70.58-20.97,2.96-1.01,6.05-1.96,9.13-.76,.97,.38,1.74,1.18,2.02,2.18,.91,3.25-.92,5.89-2.54,8.68-13.5,23.36-34.25,37.51-58.92,46.81-3.54,1.33-7.9,2.81-10.91,5.61-.32,.3-.08,.86,.35,.88,17.48,.74,32.76-5.7,48.82-9.24,.55-.12,1.04,.45,.84,.98-7.05,17.94-23.79,26.99-39.9,32.15-6.3,2.02-9.35,2.46-20.33,3.46-.37,.03-.41,.49-.11,.57,15.87,4,21.78-.55,36.34-1.55,.83-.06,1.3,1.02,.77,1.66Z"/>
  </svg>
</svg>
