<svg xmlns="http://www.w3.org/2000/svg" width="2048" height="1024" viewBox="0 0 2048 1024">
  <!-- Primer ícono (Electric) -->
  <svg x="200" y="100" width="800" height="800" viewBox="0 0 256 256">
    <defs>
      <style>
        .cls-electric-bg { fill: #dfbc28; } /* Amarillo para Electric */
        .cls-electric-icon { fill: #fff; }
      </style>
    </defs>
    <circle class="cls-electric-bg" cx="128" cy="128" r="128"/>
    <path class="cls-electric-icon" d="M112.94,205.87c-4.35-1.07-3.09-4.21-2.41-6.43,3.08-10.15,6.21-20.3,9.82-30.28,2.33-6.45,1.96-10.95-4.46-15.2-10.8-7.15-20.8-15.48-31.36-23-6.61-4.71-7.92-10.03-3.8-17.02,11.64-19.74,23.22-39.49,36.68-58.1,5.15-7.12,10.27-8.11,17.65-3.53,11.82,7.34,23.91,14.25,36.04,21.07,7.09,3.99,7.59,8.15,2.06,14.06-8.19,8.74-15.62,18.2-24.02,26.73-5.23,5.31-4.13,8.76,.94,12.93,6.41,5.28,12.52,10.94,18.74,16.46,3.68,3.27,4.04,6.56,.24,10.13-17.7,16.64-35.35,33.33-53.04,49.98-.94,.89-2.12,1.53-3.08,2.21Z"/>
  </svg>

  <!-- Segundo ícono (Steel) -->
  <svg x="1048" y="100" width="800" height="800" viewBox="0 0 256 256">
    <defs>
      <style>
        .cls-steel-bg { fill: #74b0cb; } /* Azul acero para Steel */
        .cls-steel-highlight { fill: #77b2cb; } /* Resalte más claro */
        .cls-steel-icon { fill: #fff; }
      </style>
    </defs>
    <circle class="cls-steel-bg" cx="128" cy="128" r="128"/>
    <path class="cls-steel-icon" d="M117.24,93.22c2.6,13.41,4.78,24.66,7.26,37.43-22.73,6.49-44.68,12.75-69.68,19.88,9.84-30.35,18.66-57.52,27.59-85.05h89.4c.95,2.01,2.13,4.49,3.84,8.09-19.64,6.61-38.27,12.88-58.41,19.65Z"/>
    <path class="cls-steel-icon" d="M200.8,150.53c-14.91,10.77-28.49,20.58-44.8,32.36-7.75-27.52-14.82-52.63-22.38-79.5,16.5-5.26,30.78-9.82,46.8-14.93,6.96,21.21,13.5,41.12,20.38,62.07Z"/>
    <path class="cls-steel-icon" d="M143.47,191.59c-5.22,3.98-10.06,7.68-15.77,12.03-19.71-14.37-38.84-28.32-61.19-44.61,22.17-6.41,40.89-11.82,61.12-17.66,5.46,17.32,10.48,33.22,15.85,50.24Z"/>
    <circle class="cls-steel-highlight" cx="97.05" cy="80.81" r="7.64"/>
    <circle class="cls-steel-highlight" cx="161.67" cy="116.95" r="10.41"/>
  </svg>
</svg>
