<svg xmlns="http://www.w3.org/2000/svg" width="2048" height="1024" viewBox="0 0 2048 1024">
  <!-- Primer ícono (Fire) -->
  <svg x="200" y="100" width="800" height="800" viewBox="0 0 256 256">
    <defs>
      <style>
        .cls-fire-bg { fill: #e4613e; } /* Rojo fuego */
        .cls-fire-icon { fill: #fff; }
      </style>
    </defs>
    <circle class="cls-fire-bg" cx="128" cy="128" r="128"/>
    <path class="cls-fire-icon" d="M101.14,196.71c-18.04-4.97-32.15-33.23-26.12-56.44,2.47-9.5,6.73-18.04,13.15-25.42,5.67-6.52,11.56-12.86,17.44-19.19,16.45-17.72,16.84-21.84,3.67-40.92,16.66-6.33,35.79,6.81,36.26,24.87,.23,8.92-3.12,16.84-6.55,24.78-2.86,6.61-3.94,13.22,1.46,21.46,.78-7.78,.25-13.98,5.16-19.12,5.44-5.7,9.99-7.61,18.26-5.74-8,6.58-6.97,10.9,6.52,29.92,12.34,17.41,15.7,32.35,6.6,48.54-9.75,17.35-30.86,27.88-50.31,24.97,1.32-2.15,5-3.89,7.7-5.48,12.95-7.61,14.91-19.54,4.94-30.71-3.31-3.71-7.06-7.04-10.68-10.47-14.71-13.95-16.33-16.83-20.12-36.25-20.01,10.96-23.87,46.75-7.38,75.23Z"/>
  </svg>

  <!-- Segundo ícono (Flying) -->
  <svg x="1048" y="100" width="800" height="800" viewBox="0 0 256 256">
    <defs>
      <style>
        .cls-flying-bg { fill: #74aad0; } /* Azul cielo */
        .cls-flying-icon { fill: #fff; }
      </style>
    </defs>
    <circle class="cls-flying-bg" cx="128" cy="128" r="128"/>
    <path class="cls-flying-icon" d="M151.78,148.43c-15.72,18.66-36.72,18.54-56.82,20.49-.88,.09-1.72,.46-2.36,1.09-10.27,10.09-15.84,24.13-28,33.64-.55,.43-1.39,.2-1.63-.45-2.25-6.09-1.57-11.4-.81-16.39,4.26-28.02,11.13-55.4,21.88-81.66,5.83-14.23,15.13-24.51,31.59-27.2,24.36-3.98,47.33-13.03,70.58-20.97,2.96-1.01,6.05-1.96,9.13-.76,.97,.38,1.74,1.18,2.02,2.18,.91,3.25-.92,5.89-2.54,8.68-13.5,23.36-34.25,37.51-58.92,46.81-3.54,1.33-7.9,2.81-10.91,5.61-.32,.3-.08,.86,.35,.88,17.48,.74,32.76-5.7,48.82-9.24,.55-.12,1.04,.45,.84,.98-7.05,17.94-23.79,26.99-39.9,32.15-6.3,2.02-9.35,2.46-20.33,3.46-.37,.03-.41,.49-.11,.57,15.87,4,21.78-.55,36.34-1.55,.83-.06,1.3,1.02,.77,1.66Z"/>
  </svg>
</svg>
