<svg xmlns="http://www.w3.org/2000/svg" width="2048" height="1024" viewBox="0 0 2048 1024">
  <!-- Primer ícono (Ghost) -->
  <svg x="200" y="100" width="800" height="800" viewBox="0 0 256 256">
    <defs>
      <style>
        .cls-ghost-bg { fill: #6f4570; } /* Morado oscuro */
        .cls-ghost-icon { fill: #fff; }
        .cls-ghost-secondary { fill: #785279; }
      </style>
    </defs>
    <circle class="cls-ghost-bg" cx="128" cy="128" r="128"/>
    <path class="cls-ghost-icon" d="M181.32,129.18c17.5-2.25,26.94,4.31,29.63,19.92,.35,2.02,.89,4.09-.95,5.51-1.82,1.4-3.97,.9-5.49-.53-3.43-3.21-6.15-2.85-9.23,.65-11.43,13.03-11.49,12.97-25.61,3.67-7.23,9.3-13.4,19.53-22.16,27.76-15.24,14.32-23.93,14.36-39.14-.12-8.5-8.1-14.85-17.81-21.86-27.6-1.34,.61-2.63,.92-3.57,1.67-11.08,8.95-12.51,8.86-20.73-3.02-3.01-4.34-5.61-7.7-10.89-2.9-1.55,1.41-3.7,1.79-5.46,.27-1.77-1.53-1.11-3.56-.73-5.56,2.91-15.53,11.6-21.56,29.88-19.95-1.56-21.61,3.65-40.79,21.04-55.13,10.2-8.4,21.88-12.33,35.08-11.62,30.09,1.6,48.84,26.36,50.2,66.98Z"/>
    <path class="cls-ghost-secondary" d="M97.2,100.05c-.05-3.76,.1-7.72,4.2-9.25,4.1-1.54,6.94,1.39,9.36,4.16,5.03,5.76,7.53,12.61,6.59,20.2-.85,6.86-5.98,8.61-11.33,4.15-5.97-4.98-8.66-11.56-8.82-19.25Z"/>
    <path class="cls-ghost-secondary" d="M158.77,100.6c-.26,7.31-2.96,13.47-8.42,18.46-2.1,1.92-4.32,3.3-7.12,2.5-3.33-.96-4.53-3.86-4.71-6.94-.42-7.24,1.69-13.82,6.43-19.33,2.59-3.02,5.62-6.37,10.14-4.27,3.89,1.81,3.8,5.86,3.69,9.59Z"/>
  </svg>

  <!-- Segundo ícono (Poison) -->
  <svg x="1048" y="100" width="800" height="800" viewBox="0 0 256 256">
    <defs>
      <style>
        .cls-poison-bg { fill: #9354cb; } /* Morado para Poison */
        .cls-poison-icon { fill: #fff; }
      </style>
    </defs>
    <circle class="cls-poison-bg" cx="128" cy="128" r="128"/>
    <circle class="cls-poison-icon" cx="159.37" cy="123.2" r="16.8"/>
    <circle class="cls-poison-icon" cx="102.45" cy="86.6" r="28.2"/>
    <path class="cls-poison-icon" d="M197.45,191.55c2.36-1.5,3.12-3.08,3.28-4.91,.05-.38,.08-.77,.08-1.18,0-.27-.03-.52-.06-.76-.16-2.7-1.26-4.54-8.23-6.81-1.21-.39-2.54-.78-3.97-1.17-7.9-2.37-15.56-3.78-24.24-4.53-3.43-.44-6.99-.84-10.63-1.18-1.71-.52-2.31-1.28-2.72-2.44-.55-2.95-1.65-5.7-3.19-8.15-3.79-6.49-9.84-10.25-17.82-10.82-.49-.04-.98-.07-1.48-.08-.04,0-.08,0-.12,0-.03,0-.05,0-.08,0-.09,0-.18,0-.27,0-.27,0-.53,.01-.8,.02-9.24,.17-16.18,4.64-19.99,12.7-.62,1.22-1.15,2.49-1.55,3.82-.93,2.47-1.59,3.97-3.63,4.86-4.92,.42-9.65,.95-14.1,1.57-4.28,.46-8.51,1.21-12.7,2.17-5.5,1.14-10.17,2.43-13.73,3.8-.53,.19-1.04,.4-1.54,.63-4.26,1.9-4.63,3.67-4.66,5.88-.02,.26-.05,.52-.04,.8,0,.16,.03,.31,.04,.47,.06,2.53,.72,4.56,5.71,6.64,.94,.41,1.93,.76,2.94,1.08,1.65,.55,3.48,1.08,5.48,1.59,8.46,2.29,17.02,3.57,25.62,4.37,10.22,1.13,21.52,1.79,32.87,1.8,0,0,0,0,.01,0,0,0,0,0,0,0,.03,0,.06,0,.09,0,10.47,0,20.99-.59,30.65-1.59,10.15-.84,20.2-2.3,30.08-5.18,.46-.13,.91-.26,1.35-.39,.09-.03,.17-.05,.26-.08,2.29-.71,4.79-1.49,6.76-2.73,.08-.05,.16-.1,.25-.15,.02-.02,.05-.03,.07-.05Z"/>
  </svg>
</svg>
