<svg xmlns="http://www.w3.org/2000/svg" width="2048" height="1024" viewBox="0 0 2048 1024">
  <!-- Primer ícono (Grass) -->
  <svg x="200" y="100" width="800" height="800" viewBox="0 0 256 256">
    <defs>
      <style>
        .cls-grass-bg { fill: #439837; } /* Verde para Grass */
        .cls-grass-icon { fill: #fff; }
      </style>
    </defs>
    <circle class="cls-grass-bg" cx="128" cy="128" r="128"/>
    <path class="cls-grass-icon" d="M194.3,86.12c2.2-2.13,1.76,4.2,1.52,6.15-4.07,32.61-8.97,65.08-16.15,97.16-1.92,8.61-3.33,9.71-12.1,9.84-9.68,.14-19.35,.06-28.95,.04-1.7,0-2.85-1.73-2.2-3.3,15.94-38.11,37.34-90.03,57.88-109.89Z"/>
    <path class="cls-grass-icon" d="M121.47,180.64c-.83-23.74,2.05-37.16,5.01-68.66,.12-1.32,.59-2.57,1.15-3.77,3.53-7.48,17.34-36.24,25.36-46.17,1.68-2.08,5.01-.95,5.18,1.71,.11,1.78,.04,3.44-.03,5.22-.89,20.31-3.29,40.49-6.19,60.6-.56,3.86-2.22,7.68-3.97,11.23-5.73,11.62,1.08-2.28-17.76,34.57-1.19,2.34-2.12,5.3-4.33,6.98-1.8,1.37-4.34,.55-4.42-1.7Z"/>
    <path class="cls-grass-icon" d="M116.82,86.12c2.2-2.13,1.76,4.2,1.52,6.15-4.07,32.61-8.97,65.08-16.15,97.16-1.92,8.61-3.33,9.71-12.1,9.84-9.68,.14-19.35,.06-28.95,.04-1.7,0-2.85-1.73-2.2-3.3,15.94-38.11,37.34-90.03,57.88-109.89Z"/>
  </svg>

  <!-- Segundo ícono (Psychic) -->
  <svg x="1048" y="100" width="800" height="800" viewBox="0 0 256 256">
    <defs>
      <style>
        .cls-psychic-bg { fill: #e96c8c; } /* Rosa para Psychic */
        .cls-psychic-icon { fill: #fff; }
      </style>
    </defs>
    <circle class="cls-psychic-bg" cx="128" cy="128" r="128"/>
    <path class="cls-psychic-icon" d="M197.45,99.74c.29,5.25-2.01,9.75-4.39,14.13-5,9.21-4.92,18.19-.37,27.66,10.23,21.3,3.62,33.41-19.59,35.57-11.16,1.04-19.22,5.65-25.41,15.11-11.71,17.9-27.71,17.77-39.56-.25-5.98-9.09-13.76-13.73-24.55-14.79-24.07-2.36-30.54-13.99-20.14-35.92,4.32-9.12,4.22-17.7-.14-26.79-10.21-21.31-3.62-33.41,19.59-35.57,11.15-1.04,19.23-5.65,25.41-15.11,11.49-17.58,27.83-17.94,38.95-.54,7.09,11.09,16.73,15.07,29.13,16.03,13.9,1.08,21.17,8.75,21.06,20.48Z"/>
    <path class="cls-psychic-icon" d="M174.57,154.66c-20.78,1.82-35.45,9.96-46.37,26.9-11.55-16.67-26-25.21-45.7-26.81,6.99-17.87,8.75-34.96-.85-53,19.9-2.33,34.97-10.36,46.4-26.96,11.3,16.3,25.74,24.84,45.44,26.44-6.94,17.88-8.77,34.96,1.08,53.42Z"/>
  </svg>
</svg>
