<svg xmlns="http://www.w3.org/2000/svg" width="2048" height="1024" viewBox="0 0 2048 1024">
  <!-- Primer ícono (Ground) -->
  <svg x="200" y="100" width="800" height="800" viewBox="0 0 256 256">
    <defs>
      <style>
        .cls-ground-bg { fill: #a4733c; } /* Fondo Ground */
        .cls-ground-icon { fill: #fff; }  /* Color del ícono */
      </style>
    </defs>
    <circle class="cls-ground-bg" cx="128" cy="128" r="128"/>
    <path class="cls-ground-icon" d="M126.23,184.84c-2.52-.77-6.4-1.66-10.06-3.12-16.93-6.77-33.8-13.68-50.68-20.59-1.52-.62-2.94-1.54-4.37-2.37-7.42-4.3-7.7-9.21-.2-12.86,20.58-10.01,41.94-18.12,63.61-25.43,2.66-.9,5.15-.6,7.77,.29,21.03,7.14,41.73,15.08,61.78,24.65,.9,.43,1.91,.68,2.71,1.23,4.81,3.35,4.98,8.12-.08,11.12-4.54,2.69-9.52,4.66-14.4,6.73-16.16,6.86-32.34,13.7-49,19.3-1.91,.64-3.72,1.37-7.09,1.04Z"/>
    <path class="cls-ground-icon" d="M127.56,209.93c-4.2,0-16.12-4.16-23.83-7.01-14.62-5.41-29.03-11.48-43.23-17.96-.67-.3-3.56-1.99-5.19-2.94-5.04-2.9-5.41-3.74-2.57-9.25,1.9-3.68,2.7-3.31,7.75-.99,16.01,7.32,32.38,13.67,48.71,20.15s21.09,6.87,37.52,.04c15.91-6.61,31.68-13.54,47.8-19.73,4.87-1.87,6.88-3.86,9.14,1.33,1.81,4.15,3.83,5.53-3.76,8.84-16.74,7.31-33.07,15.45-50.36,21.36-7.2,2.46-17.23,6.15-21.98,6.15Z"/>
    <path class="cls-ground-icon" d="M93.59,71.19q0,14.24-14.1,14.23c-1.33,0-2.65,.02-3.98-.02-8.78-.28-9.26-.78-9.52-9.97q-.51-18.04,17.68-17.63c9.44,.22,9.76,.54,9.92,10.4,.02,.99,0,1.99,0,2.98Z"/>
    <path class="cls-ground-icon" d="M185.3,87.72c-.14,10.17-.34,10.34-11.99,10.25-10-.08-10.24-.37-10.14-12.06,.09-10.18,.35-10.41,11.95-10.24,10.14,.15,10.34,.38,10.18,12.05Z"/>
    <path class="cls-ground-icon" d="M119.38,99.54c.04,8.09-1.04,9.17-9.13,9.18-8.19,0-9.46-1.21-9.42-8.99,.04-7.6,.99-8.41,9.78-8.36,8.16,.05,8.74,.59,8.78,8.16Z"/>
  </svg>

  <!-- Segundo ícono (Rock) -->
  <svg x="1048" y="100" width="800" height="800" viewBox="0 0 256 256">
    <defs>
      <style>
        .cls-rock-bg { fill: #a9a481; } /* Fondo Rock */
        .cls-rock-icon { fill: #fff; }  /* Color del ícono */
      </style>
    </defs>
    <circle class="cls-rock-bg" cx="128" cy="128" r="128"/>
    <path class="cls-rock-icon" d="M199.67,98.23l-19.62-19.62,3.55,23.38c.03,.19-.2,.31-.34,.17l-29.18-29.18c-.14-.14-.02-.37,.17-.34l23.38,3.55-19.87-19.87s-.09-.06-.14-.06h-59.26c-.05,0-.1,.02-.14,.06l-41.9,41.9s-.06,.09-.06,.14v59.26c0,.05,.02,.1,.06,.14l19.53,19.53-9.71-45.05c-.04-.19,.2-.32,.34-.18l57.77,57.77c.14,.14,.01,.38-.18,.34l-45.05-9.71,19.21,19.21s.09,.06,.14,.06h59.26c.05,0,.1-.02,.14-.06l19.24-19.24-45.14,9.75c-.19,.04-.32-.2-.18-.34l57.76-57.76c.14-.14,.38-.01,.34,.18l-9.75,45.14,19.64-19.64s.06-.09,.06-.14v-59.26c0-.05-.02-.1-.06-.14Z"/>
  </svg>
</svg>
