<svg xmlns="http://www.w3.org/2000/svg" width="2048" height="1024" viewBox="0 0 2048 1024">
  <!-- Primer ícono (Ice) -->
  <svg x="200" y="100" width="800" height="800" viewBox="0 0 256 256">
    <defs>
      <style>
        .cls-ice-bg { fill: #47c8c8; } /* Color para Ice */
        .cls-ice-icon { fill: #fbfdfd; }
        .cls-ice-accent { fill: #64cfcf; }
      </style>
    </defs>
    <circle class="cls-ice-bg" cx="128" cy="128" r="128"/>
    <path class="cls-ice-icon" d="M110.36,60.61c6.05-5.88,11.4-11.09,17.77-17.29,5.97,6.13,11.17,11.47,17.14,17.59-4.92,5.79-9.31,10.96-14.74,17.36,12.8,7.44,26.4,16.32,40.07,24.27v-23.26h24.01c0,7.81,.09,16.68,.09,25.33-21.7,0-5.65,.26-22.24,.26,0,15.36,.44,31.53,.44,47.51h21.79v24.18h-23.94v-21.88c-13.22,7.56-27.06,15.34-40.38,22.95,5.13,5.9,9.4,10.79,14.9,17.11-5.37,5.66-10.66,11.23-17.36,18.29-5.96-6.39-11.21-12.02-17.12-18.36,4.98-5.7,9.44-10.8,14.84-16.97-13.25-7.61-27-15.35-40.37-23.03v22.22h-24.05v-24.46h22.03c0-15.56-.08-32.89-.08-48.86l-22.05-.08v-24.22h24.22c0,21.72,0,2.88,0,21.24,13.09-7.41,26.69-14.32,40.16-21.95-5.03-5.96-9.38-11.12-15.15-17.95Z"/>
    <path class="cls-ice-accent" d="M96.46,140.79v-32.06c12.55-7.16,12.55-6.81,27.27-15.03l6.03,7.93c-22.64,12.82,.71-.29-22.64,12.82v26.34h-10.66Z"/>
  </svg>

  <!-- Segundo ícono (Flying) -->
  <svg x="1048" y="100" width="800" height="800" viewBox="0 0 256 256">
    <defs>
      <style>
        .cls-flying-bg { fill: #74aad0; } /* Color para Flying */
        .cls-flying-icon { fill: #fff; }
      </style>
    </defs>
    <circle class="cls-flying-bg" cx="128" cy="128" r="128"/>
    <path class="cls-flying-icon" d="M151.78,148.43c-15.72,18.66-36.72,18.54-56.82,20.49-.88,.09-1.72,.46-2.36,1.09-10.27,10.09-15.84,24.13-28,33.64-.55,.43-1.39,.2-1.63-.45-2.25-6.09-1.57-11.4-.81-16.39,4.26-28.02,11.13-55.4,21.88-81.66,5.83-14.23,15.13-24.51,31.59-27.2,24.36-3.98,47.33-13.03,70.58-20.97,2.96-1.01,6.05-1.96,9.13-.76,.97,.38,1.74,1.18,2.02,2.18,.91,3.25-.92,5.89-2.54,8.68-13.5,23.36-34.25,37.51-58.92,46.81-3.54,1.33-7.9,2.81-10.91,5.61-.32,.3-.08,.86,.35,.88,17.48,.74,32.76-5.7,48.82-9.24,.55-.12,1.04,.45,.84,.98-7.05,17.94-23.79,26.99-39.9,32.15-6.3,2.02-9.35,2.46-20.33,3.46-.37,.03-.41,.49-.11,.57,15.87,4,21.78-.55,36.34-1.55,.83-.06,1.3,1.02,.77,1.66Z"/>
  </svg>
</svg>
