<svg xmlns="http://www.w3.org/2000/svg" width="2048" height="1024" viewBox="0 0 2048 1024">
  <!-- Primer ícono (Ice) -->
  <svg x="200" y="100" width="800" height="800" viewBox="0 0 256 256">
    <defs>
      <style>
        .cls-ice-bg { fill: #47c8c8; } /* Fondo Ice */
        .cls-ice-icon { fill: #fbfdfd; } /* Color principal */
        .cls-ice-accent { fill: #64cfcf; } /* Acentos */
      </style>
    </defs>
    <circle class="cls-ice-bg" cx="128" cy="128" r="128"/>
    <path class="cls-ice-icon" d="M110.36,60.61c6.05-5.88,11.4-11.09,17.77-17.29,5.97,6.13,11.17,11.47,17.14,17.59-4.92,5.79-9.31,10.96-14.74,17.36,12.8,7.44,26.4,16.32,40.07,24.27v-23.26h24.01c0,7.81,.09,16.68,.09,25.33-21.7,0-5.65,.26-22.24,.26,0,15.36,.44,31.53,.44,47.51h21.79v24.18h-23.94v-21.88c-13.22,7.56-27.06,15.34-40.38,22.95,5.13,5.9,9.4,10.79,14.9,17.11-5.37,5.66-10.66,11.23-17.36,18.29-5.96-6.39-11.21-12.02-17.12-18.36,4.98-5.7,9.44-10.8,14.84-16.97-13.25-7.61-27-15.35-40.37-23.03v22.22h-24.05v-24.46h22.03c0-15.56-.08-32.89-.08-48.86l-22.05-.08v-24.22h24.22c0,21.72,0,2.88,0,21.24,13.09-7.41,26.69-14.32,40.16-21.95-5.03-5.96-9.38-11.12-15.15-17.95Z"/>
    <path class="cls-ice-accent" d="M96.46,140.79v-32.06c12.55-7.16,12.55-6.81,27.27-15.03l6.03,7.93c-22.64,12.82,.71-.29-22.64,12.82v26.34h-10.66Z"/>
  </svg>

  <!-- Segundo ícono (Psychic) -->
  <svg x="1048" y="100" width="800" height="800" viewBox="0 0 256 256">
    <defs>
      <style>
        .cls-psychic-bg { fill: #e96c8c; } /* Fondo Psychic */
        .cls-psychic-icon { fill: #fff; } /* Color principal */
        .cls-psychic-accent { fill: #e96c8d; } /* Acentos */
      </style>
    </defs>
    <circle class="cls-psychic-bg" cx="128" cy="128" r="128"/>
    <path class="cls-psychic-icon" d="M197.45,99.74c.29,5.25-2.01,9.75-4.39,14.13-5,9.21-4.92,18.19-.37,27.66,10.23,21.3,3.62,33.41-19.59,35.57-11.16,1.04-19.22,5.65-25.41,15.11-11.71,17.9-27.71,17.77-39.56-.25-5.98-9.09-13.76-13.73-24.55-14.79-24.07-2.36-30.54-13.99-20.14-35.92,4.32-9.12,4.22-17.7-.14-26.79-10.21-21.31-3.62-33.41,19.59-35.57,11.15-1.04,19.23-5.65,25.41-15.11,11.49-17.58,27.83-17.94,38.95-.54,7.09,11.09,16.73,15.07,29.13,16.03,13.9,1.08,21.17,8.75,21.06,20.48Z"/>
    <path class="cls-psychic-accent" d="M174.57,154.66c-20.78,1.82-35.45,9.96-46.37,26.9-11.55-16.67-26-25.21-45.7-26.81,6.99-17.87,8.75-34.96-.85-53,19.9-2.33,34.97-10.36,46.4-26.96,11.3,16.3,25.74,24.84,45.44,26.44-6.94,17.88-8.77,34.96,1.08,53.42Z"/>
  </svg>
</svg>
