<svg xmlns="http://www.w3.org/2000/svg" width="2048" height="1024" viewBox="0 0 2048 1024">
  <!-- Primer ícono (Normal) -->
  <svg x="200" y="100" width="800" height="800" viewBox="0 0 256 256">
    <defs>
      <style>
        .cls-normal-bg { fill: #828282; } /* Fondo Normal */
        .cls-normal-icon { fill: #fff; } /* Color del ícono */
      </style>
    </defs>
    <circle class="cls-normal-bg" cx="128" cy="128" r="128"/>
    <path class="cls-normal-icon" d="M129.76,204.09c-52.17,.13-86.62-49.01-69.05-96.43,1.58-4.26,2.06-8.18,.3-12.54-4.35-10.76-2.11-20.35,6.4-28.13,8.6-7.86,18.65-8.56,28.73-3.56,4.11,2.04,7.65,1.76,11.48,.67,13.45-3.84,26.89-3.86,40.31-.09,5.01,1.41,9.29,.9,14.31-1.24,9.79-4.16,19.59-3.35,27.74,4.64,8.34,8.17,9.92,17.82,5.48,28.33-1.7,4.02-1.86,7.6-.29,11.52,13.45,33.52-1.47,71.64-33.35,88.74-10.47,5.62-21.72,8.21-32.05,8.08Z"/>
    <path class="cls-normal-bg" d="M77.28,133.16c-1.34-26.26,21.93-51.19,50.24-51.09,28.36,.09,50.55,22.02,51.35,50.13,.68,24.05-19.28,50.72-50.39,51.16-27.94,.4-51.07-22.27-51.2-50.2Z"/>
  </svg>

  <!-- Segundo ícono (Fairy) -->
  <svg x="1048" y="100" width="800" height="800" viewBox="0 0 256 256">
    <defs>
      <style>
        .cls-fairy-bg { fill: #e18ce1; } /* Fondo Fairy */
        .cls-fairy-icon { fill: #fff; } /* Color del ícono */
        .cls-fairy-accent { fill: #e291e2; } /* Acentos */
      </style>
    </defs>
    <circle class="cls-fairy-bg" cx="128" cy="128" r="128"/>
    <path class="cls-fairy-icon" d="M168.54,132.61c3.77,6.74,7.72,12.55,9.17,19.5,2.22,10.62-1.21,14.8-11.95,15.74-7.15,.63-10.23,.58-23.99-6.3-.72,12.68,10.42,26.54,7.56,40.13-.3,1.42-2.11,1.88-3.1,.81-10.72-11.57-11.42-26.96-18.23-40.53-6.59,13.45-7.73,28.65-17.98,40.71-.94,1.1-2.77,.71-3.11-.7-3.31-13.62,7.93-26.82,7.68-39.39-4.82,3.96-16,5.77-22.74,5.34-12.59-.8-15.97-5-13.2-17.17,1.5-6.62,5.97-11.71,8.57-18.3-7.97-5.14-16.04-9.4-21.66-17.39-10.4-14.76-10.88-31.08-9.17-47.77,.67-6.56,6.56-8.82,12.68-9,22.43-.65,42.31,4.56,55.63,24.61q.69,1.04,3.11,5.35,2.46-3.75,3.18-4.86c13.12-20.16,32.89-25.76,55.37-25.1,9.84,.29,13.27,4.35,13.86,14.36,.99,16.72-1.38,32.29-12.39,45.93-5.05,6.25-12.22,8.98-19.28,14.02Z"/>
    <path class="cls-fairy-accent" d="M128.01,97.38c3.43,10.49,11.99,18.83,23.75,18.89-4.1,10.72-12.19,14.1-21.2,14.91-10.89,.98-20.09-2.8-26.74-14.02,11.02-1.56,20.04-8.95,24.18-19.79Z"/>
  </svg>
</svg>
