<svg xmlns="http://www.w3.org/2000/svg" width="2048" height="1024" viewBox="0 0 2048 1024">
  <!-- Primer ícono (Normal) -->
  <svg x="200" y="100" width="800" height="800" viewBox="0 0 256 256">
    <defs>
      <style>
        .cls-normal-bg { fill: #828282; } /* Fondo Normal */
        .cls-normal-icon { fill: #fff; } /* Color del ícono */
      </style>
    </defs>
    <circle class="cls-normal-bg" cx="128" cy="128" r="128"/>
    <path class="cls-normal-icon" d="M129.76,204.09c-52.17,.13-86.62-49.01-69.05-96.43,1.58-4.26,2.06-8.18,.3-12.54-4.35-10.76-2.11-20.35,6.4-28.13,8.6-7.86,18.65-8.56,28.73-3.56,4.11,2.04,7.65,1.76,11.48,.67,13.45-3.84,26.89-3.86,40.31-.09,5.01,1.41,9.29,.9,14.31-1.24,9.79-4.16,19.59-3.35,27.74,4.64,8.34,8.17,9.92,17.82,5.48,28.33-1.7,4.02-1.86,7.6-.29,11.52,13.45,33.52-1.47,71.64-33.35,88.74-10.47,5.62-21.72,8.21-32.05,8.08Z"/>
    <path class="cls-normal-bg" d="M77.28,133.16c-1.34-26.26,21.93-51.19,50.24-51.09,28.36,.09,50.55,22.02,51.35,50.13,.68,24.05-19.28,50.72-50.39,51.16-27.94,.4-51.07-22.27-51.2-50.2Z"/>
  </svg>

  <!-- Segundo ícono (Flying) -->
  <svg x="1048" y="100" width="800" height="800" viewBox="0 0 256 256">
    <defs>
      <style>
        .cls-flying-bg { fill: #74aad0; } /* Fondo Flying */
        .cls-flying-icon { fill: #fff; } /* Color del ícono */
      </style>
    </defs>
    <circle class="cls-flying-bg" cx="128" cy="128" r="128"/>
    <path class="cls-flying-icon" d="M151.78,148.43c-15.72,18.66-36.72,18.54-56.82,20.49-.88,.09-1.72,.46-2.36,1.09-10.27,10.09-15.84,24.13-28,33.64-.55,.43-1.39,.2-1.63-.45-2.25-6.09-1.57-11.4-.81-16.39,4.26-28.02,11.13-55.4,21.88-81.66,5.83-14.23,15.13-24.51,31.59-27.2,24.36-3.98,47.33-13.03,70.58-20.97,2.96-1.01,6.05-1.96,9.13-.76,.97,.38,1.74,1.18,2.02,2.18,.91,3.25-.92,5.89-2.54,8.68-13.5,23.36-34.25,37.51-58.92,46.81-3.54,1.33-7.9,2.81-10.91,5.61-.32,.3-.08,.86,.35,.88,17.48,.74,32.76-5.7,48.82-9.24,.55-.12,1.04,.45,.84,.98-7.05,17.94-23.79,26.99-39.9,32.15-6.3,2.02-9.35,2.46-20.33,3.46-.37,.03-.41,.49-.11,.57,15.87,4,21.78-.55,36.34-1.55,.83-.06,1.3,1.02,.77,1.66Z"/>
  </svg>
</svg>
