<svg xmlns="http://www.w3.org/2000/svg" width="2048" height="1024" viewBox="0 0 2048 1024">
  <!-- Primer ícono (Poison) -->
  <svg x="200" y="100" width="800" height="800" viewBox="0 0 256 256">
    <defs>
      <style>
        .cls-poison-bg { fill: #9354cb; } /* Fondo Poison */
        .cls-poison-icon { fill: #fff; } /* Color del ícono */
      </style>
    </defs>
    <circle class="cls-poison-bg" cx="128" cy="128" r="128"/>
    <circle class="cls-poison-icon" cx="159.37" cy="123.2" r="16.8"/>
    <circle class="cls-poison-icon" cx="102.45" cy="86.6" r="28.2"/>
    <path class="cls-poison-icon" d="M197.45,191.55c2.36-1.5,3.12-3.08,3.28-4.91,.05-.38,.08-.77,.08-1.18,0-.27-.03-.52-.06-.76-.16-2.7-1.26-4.54-8.23-6.81-1.21-.39-2.54-.78-3.97-1.17-7.9-2.37-15.56-3.78-24.24-4.53-3.43-.44-6.99-.84-10.63-1.18-1.71-.52-2.31-1.28-2.72-2.44-.55-2.95-1.65-5.7-3.19-8.15-3.79-6.49-9.84-10.25-17.82-10.82-.49-.04-.98-.07-1.48-.08-.04,0-.08,0-.12,0-.03,0-.05,0-.08,0-.09,0-.18,0-.27,0-.27,0-.53,.01-.8,.02-9.24,.17-16.18,4.64-19.99,12.7-.62,1.22-1.15,2.49-1.55,3.82-.93,2.47-1.59,3.97-3.63,4.86-4.92,.42-9.65,.95-14.1,1.57-4.28,.46-8.51,1.21-12.7,2.17-5.5,1.14-10.17,2.43-13.73,3.8-.53,.19-1.04,.4-1.54,.63-4.26,1.9-4.63,3.67-4.66,5.88-.02,.26-.05,.52-.04,.8,0,.16,.03,.31,.04,.47,.06,2.53,.72,4.56,5.71,6.64,.94,.41,1.93,.76,2.94,1.08,1.65,.55,3.48,1.08,5.48,1.59,8.46,2.29,17.02,3.57,25.62,4.37,10.22,1.13,21.52,1.79,32.87,1.8,0,0,0,0,.01,0,0,0,0,0,0,0,.03,0,.06,0,.09,0,10.47,0,20.99-.59,30.65-1.59,10.15-.84,20.2-2.3,30.08-5.18,.46-.13,.91-.26,1.35-.39,.09-.03,.17-.05,.26-.08,2.29-.71,4.79-1.49,6.76-2.73,.08-.05,.16-.1,.25-.15,.02-.02,.05-.03,.07-.05Z"/>
  </svg>

  <!-- Segundo ícono (Ground) -->
  <svg x="1048" y="100" width="800" height="800" viewBox="0 0 256 256">
    <defs>
      <style>
        .cls-ground-bg { fill: #a4733c; } /* Fondo Ground */
        .cls-ground-icon { fill: #fff; } /* Color del ícono */
      </style>
    </defs>
    <circle class="cls-ground-bg" cx="128" cy="128" r="128"/>
    <path class="cls-ground-icon" d="M126.23,184.84c-2.52-.77-6.4-1.66-10.06-3.12-16.93-6.77-33.8-13.68-50.68-20.59-1.52-.62-2.94-1.54-4.37-2.37-7.42-4.3-7.7-9.21-.2-12.86,20.58-10.01,41.94-18.12,63.61-25.43,2.66-.9,5.15-.6,7.77,.29,21.03,7.14,41.73,15.08,61.78,24.65,.9,.43,1.91,.68,2.71,1.23,4.81,3.35,4.98,8.12-.08,11.12-4.54,2.69-9.52,4.66-14.4,6.73-16.16,6.86-32.34,13.7-49,19.3-1.91,.64-3.72,1.37-7.09,1.04Z"/>
    <path class="cls-ground-icon" d="M127.56,209.93c-4.2,0-16.12-4.16-23.83-7.01-14.62-5.41-29.03-11.48-43.23-17.96-.67-.3-3.56-1.99-5.19-2.94-5.04-2.9-5.41-3.74-2.57-9.25,1.9-3.68,2.7-3.31,7.75-.99,16.01,7.32,32.38,13.67,48.71,20.15s21.09,6.87,37.52,.04c15.91-6.61,31.68-13.54,47.8-19.73,4.87-1.87,6.88-3.86,9.14,1.33,1.81,4.15,3.83,5.53-3.76,8.84-16.74,7.31-33.07,15.45-50.36,21.36-7.2,2.46-17.23,6.15-21.98,6.15Z"/>
    <path class="cls-ground-icon" d="M93.59,71.19q0,14.24-14.1,14.23c-1.33,0-2.65,.02-3.98-.02-8.78-.28-9.26-.78-9.52-9.97q-.51-18.04,17.68-17.63c9.44,.22,9.76,.54,9.92,10.4,.02,.99,0,1.99,0,2.98Z"/>
    <path class="cls-ground-icon" d="M185.3,87.72c-.14,10.17-.34,10.34-11.99,10.25-10-.08-10.24-.37-10.14-12.06,.09-10.18,.35-10.41,11.95-10.24,10.14,.15,10.34,.38,10.18,12.05Z"/>
    <path class="cls-ground-icon" d="M119.38,99.54c.04,8.09-1.04,9.17-9.13,9.18-8.19,0-9.46-1.21-9.42-8.99,.04-7.6,.99-8.41,9.78-8.36,8.16,.05,8.74,.59,8.78,8.16Z"/>
  </svg>
</svg>
