<svg xmlns="http://www.w3.org/2000/svg" width="2048" height="1024" viewBox="0 0 2048 1024">
  <!-- Primer ícono (Rock) -->
  <svg x="200" y="100" width="800" height="800" viewBox="0 0 256 256">
    <defs>
      <style>
        .cls-rock-bg { fill: #a9a481; } /* Fondo Rock */
        .cls-rock-icon { fill: #fff; }  /* Color del ícono */
      </style>
    </defs>
    <circle class="cls-rock-bg" cx="128" cy="128" r="128"/>
    <path class="cls-rock-icon" d="M199.67,98.23l-19.62-19.62,3.55,23.38c.03,.19-.2,.31-.34,.17l-29.18-29.18c-.14-.14-.02-.37,.17-.34l23.38,3.55-19.87-19.87s-.09-.06-.14-.06h-59.26c-.05,0-.1,.02-.14,.06l-41.9,41.9s-.06,.09-.06,.14v59.26c0,.05,.02,.1,.06,.14l19.53,19.53-9.71-45.05c-.04-.19,.2-.32,.34-.18l57.77,57.77c.14,.14,.01,.38-.18,.34l-45.05-9.71,19.21,19.21s.09,.06,.14,.06h59.26c.05,0,.1-.02,.14-.06l19.24-19.24-45.14,9.75c-.19,.04-.32-.2-.18-.34l57.76-57.76c.14-.14,.38-.01,.34,.18l-9.75,45.14,19.64-19.64s.06-.09,.06-.14v-59.26c0-.05-.02-.1-.06-.14Z"/>
  </svg>

  <!-- Segundo ícono (Flying) -->
  <svg x="1048" y="100" width="800" height="800" viewBox="0 0 256 256">
    <defs>
      <style>
        .cls-flying-bg { fill: #74aad0; } /* Fondo Flying */
        .cls-flying-icon { fill: #fff; }  /* Color del ícono */
      </style>
    </defs>
    <circle class="cls-flying-bg" cx="128" cy="128" r="128"/>
    <path class="cls-flying-icon" d="M151.78,148.43c-15.72,18.66-36.72,18.54-56.82,20.49-.88,.09-1.72,.46-2.36,1.09-10.27,10.09-15.84,24.13-28,33.64-.55,.43-1.39,.2-1.63-.45-2.25-6.09-1.57-11.4-.81-16.39,4.26-28.02,11.13-55.4,21.88-81.66,5.83-14.23,15.13-24.51,31.59-27.2,24.36-3.98,47.33-13.03,70.58-20.97,2.96-1.01,6.05-1.96,9.13-.76,.97,.38,1.74,1.18,2.02,2.18,.91,3.25-.92,5.89-2.54,8.68-13.5,23.36-34.25,37.51-58.92,46.81-3.54,1.33-7.9,2.81-10.91,5.61-.32,.3-.08,.86,.35,.88,17.48,.74,32.76-5.7,48.82-9.24,.55-.12,1.04,.45,.84,.98-7.05,17.94-23.79,26.99-39.9,32.15-6.3,2.02-9.35,2.46-20.33,3.46-.37,.03-.41,.49-.11,.57,15.87,4,21.78-.55,36.34-1.55,.83-.06,1.3,1.02,.77,1.66Z"/>
  </svg>
</svg>
