<svg xmlns="http://www.w3.org/2000/svg" width="2048" height="1024" viewBox="0 0 2048 1024">
  <!-- Primer ícono (Rock) -->
  <svg x="200" y="100" width="800" height="800" viewBox="0 0 256 256">
    <defs>
      <style>
        .cls-rock-bg { fill: #a9a481; } /* Fondo Rock */
        .cls-rock-icon { fill: #fff; }  /* Color del ícono */
      </style>
    </defs>
    <circle class="cls-rock-bg" cx="128" cy="128" r="128"/>
    <path class="cls-rock-icon" d="M199.67,98.23l-19.62-19.62,3.55,23.38c.03,.19-.2,.31-.34,.17l-29.18-29.18c-.14-.14-.02-.37,.17-.34l23.38,3.55-19.87-19.87s-.09-.06-.14-.06h-59.26c-.05,0-.1,.02-.14,.06l-41.9,41.9s-.06,.09-.06,.14v59.26c0,.05,.02,.1,.06,.14l19.53,19.53-9.71-45.05c-.04-.19,.2-.32,.34-.18l57.77,57.77c.14,.14,.01,.38-.18,.34l-45.05-9.71,19.21,19.21s.09,.06,.14,.06h59.26c.05,0,.1-.02,.14-.06l19.24-19.24-45.14,9.75c-.19,.04-.32-.2-.18-.34l57.76-57.76c.14-.14,.38-.01,.34,.18l-9.75,45.14,19.64-19.64s.06-.09,.06-.14v-59.26c0-.05-.02-.1-.06-.14Z"/>
  </svg>

  <!-- Segundo ícono (Water) -->
  <svg x="1048" y="100" width="800" height="800" viewBox="0 0 256 256">
    <defs>
      <style>
        .cls-water-bg { fill: #3099e1; } /* Fondo Water */
        .cls-water-icon { fill: #fff; }  /* Color del ícono */
        .cls-water-highlight { fill: #3a9de2; } /* Resalte adicional */
      </style>
    </defs>
    <circle class="cls-water-bg" cx="128" cy="128" r="128"/>
    <path class="cls-water-icon" d="M128.35,206.24c-34.24,.13-56.14-32.39-43.8-64.78,4.18-10.98,10.78-20.6,16.8-30.49,9.43-15.5,15.71-32.11,19.91-49.63,.54-2.25,.94-4.58,1.88-6.66,.93-2.07,2.13-4.29,5.02-4.17,2.83,.12,3.84,2.41,4.87,4.44,.74,1.45,1.09,3.12,1.41,4.73,4.46,22.12,13.91,42.06,26.04,60.93,7.77,12.08,14.46,24.58,14.13,39.75-.57,26.48-19.82,45.79-46.27,45.89Z"/>
    <path class="cls-water-highlight" d="M129.16,193.51c-13.8-1.05-25.57-4.53-32.92-16.53-1.35-2.2-3.13-5.02-1.71-7.44,1.88-3.21,4.73-.71,7.03,.08,17.88,6.19,35.7,6.17,53.52-.27,2.06-.75,4.33-2.73,6.36-.43,1.92,2.18,.05,4.41-.92,6.39-6.52,13.39-18.86,16.49-31.35,18.19Z"/>
  </svg>
</svg>
