<svg xmlns="http://www.w3.org/2000/svg" width="2048" height="1024" viewBox="0 0 2048 1024">
  <!-- Primer ícono (Water) -->
  <svg x="200" y="100" width="800" height="800" viewBox="0 0 256 256">
    <defs>
      <style>
        .cls-water-bg { fill: #3099e1; } /* Fondo Water */
        .cls-water-icon { fill: #fff; }  /* Color del ícono */
        .cls-water-highlight { fill: #3a9de2; } /* Resalte adicional */
      </style>
    </defs>
    <circle class="cls-water-bg" cx="128" cy="128" r="128"/>
    <path class="cls-water-icon" d="M128.35,206.24c-34.24,.13-56.14-32.39-43.8-64.78,4.18-10.98,10.78-20.6,16.8-30.49,9.43-15.5,15.71-32.11,19.91-49.63,.54-2.25,.94-4.58,1.88-6.66,.93-2.07,2.13-4.29,5.02-4.17,2.83,.12,3.84,2.41,4.87,4.44,.74,1.45,1.09,3.12,1.41,4.73,4.46,22.12,13.91,42.06,26.04,60.93,7.77,12.08,14.46,24.58,14.13,39.75-.57,26.48-19.82,45.79-46.27,45.89Z"/>
    <path class="cls-water-highlight" d="M129.16,193.51c-13.8-1.05-25.57-4.53-32.92-16.53-1.35-2.2-3.13-5.02-1.71-7.44,1.88-3.21,4.73-.71,7.03,.08,17.88,6.19,35.7,6.17,53.52-.27,2.06-.75,4.33-2.73,6.36-.43,1.92,2.18,.05,4.41-.92,6.39-6.52,13.39-18.86,16.49-31.35,18.19Z"/>
  </svg>

  <!-- Segundo ícono (Ice) -->
  <svg x="1048" y="100" width="800" height="800" viewBox="0 0 256 256">
    <defs>
      <style>
        .cls-ice-bg { fill: #47c8c8; } /* Fondo Ice */
        .cls-ice-icon { fill: #fbfdfd; }  /* Color del ícono */
        .cls-ice-highlight { fill: #64cfcf; } /* Resalte adicional */
      </style>
    </defs>
    <circle class="cls-ice-bg" cx="128" cy="128" r="128"/>
    <path class="cls-ice-icon" d="M110.36,60.61c6.05-5.88,11.4-11.09,17.77-17.29,5.97,6.13,11.17,11.47,17.14,17.59-4.92,5.79-9.31,10.96-14.74,17.36,12.8,7.44,26.4,16.32,40.07,24.27v-23.26h24.01c0,7.81,.09,16.68,.09,25.33-21.7,0-5.65,.26-22.24,.26,0,15.36,.44,31.53,.44,47.51h21.79v24.18h-23.94v-21.88c-13.22,7.56-27.06,15.34-40.38,22.95,5.13,5.9,9.4,10.79,14.9,17.11-5.37,5.66-10.66,11.23-17.36,18.29-5.96-6.39-11.21-12.02-17.12-18.36,4.98-5.7,9.44-10.8,14.84-16.97-13.25-7.61-27-15.35-40.37-23.03v22.22h-24.05v-24.46h22.03c0-15.56-.08-32.89-.08-48.86l-22.05-.08v-24.22h24.22c0,21.72,0,2.88,0,21.24,13.09-7.41,26.69-14.32,40.16-21.95-5.03-5.96-9.38-11.12-15.15-17.95Z"/>
    <path class="cls-ice-highlight" d="M96.46,140.79v-32.06c12.55-7.16,12.55-6.81,27.27-15.03l6.03,7.93c-22.64,12.82,.71-.29-22.64,12.82v26.34h-10.66Z"/>
  </svg>
</svg>
