<svg xmlns="http://www.w3.org/2000/svg" width="2048" height="1024" viewBox="0 0 2048 1024">
  <!-- Primer ícono (Water) -->
  <svg x="200" y="100" width="800" height="800" viewBox="0 0 256 256">
    <defs>
      <style>
        .cls-water-bg { fill: #3099e1; } /* Fondo Water */
        .cls-water-icon { fill: #fff; }  /* Color del ícono */
        .cls-water-highlight { fill: #3a9de2; } /* Resalte adicional */
      </style>
    </defs>
    <circle class="cls-water-bg" cx="128" cy="128" r="128"/>
    <path class="cls-water-icon" d="M128.35,206.24c-34.24,.13-56.14-32.39-43.8-64.78,4.18-10.98,10.78-20.6,16.8-30.49,9.43-15.5,15.71-32.11,19.91-49.63,.54-2.25,.94-4.58,1.88-6.66,.93-2.07,2.13-4.29,5.02-4.17,2.83,.12,3.84,2.41,4.87,4.44,.74,1.45,1.09,3.12,1.41,4.73,4.46,22.12,13.91,42.06,26.04,60.93,7.77,12.08,14.46,24.58,14.13,39.75-.57,26.48-19.82,45.79-46.27,45.89Z"/>
    <path class="cls-water-highlight" d="M129.16,193.51c-13.8-1.05-25.57-4.53-32.92-16.53-1.35-2.2-3.13-5.02-1.71-7.44,1.88-3.21,4.73-.71,7.03,.08,17.88,6.19,35.7,6.17,53.52-.27,2.06-.75,4.33-2.73,6.36-.43,1.92,2.18,.05,4.41-.92,6.39-6.52,13.39-18.86,16.49-31.35,18.19Z"/>
  </svg>

  <!-- Segundo ícono (Flying) -->
  <svg x="1048" y="100" width="800" height="800" viewBox="0 0 256 256">
    <defs>
      <style>
        .cls-flying-bg { fill: #74aad0; } /* Fondo Flying */
        .cls-flying-icon { fill: #fff; }  /* Color del ícono */
      </style>
    </defs>
    <circle class="cls-flying-bg" cx="128" cy="128" r="128"/>
    <path class="cls-flying-icon" d="M151.78,148.43c-15.72,18.66-36.72,18.54-56.82,20.49-.88,.09-1.72,.46-2.36,1.09-10.27,10.09-15.84,24.13-28,33.64-.55,.43-1.39,.2-1.63-.45-2.25-6.09-1.57-11.4-.81-16.39,4.26-28.02,11.13-55.4,21.88-81.66,5.83-14.23,15.13-24.51,31.59-27.2,24.36-3.98,47.33-13.03,70.58-20.97,2.96-1.01,6.05-1.96,9.13-.76,.97,.38,1.74,1.18,2.02,2.18,.91,3.25-.92,5.89-2.54,8.68-13.5,23.36-34.25,37.51-58.92,46.81-3.54,1.33-7.9,2.81-10.91,5.61-.32,.3-.08,.86,.35,.88,17.48,.74,32.76-5.7,48.82-9.24,.55-.12,1.04,.45,.84,.98-7.05,17.94-23.79,26.99-39.9,32.15-6.3,2.02-9.35,2.46-20.33,3.46-.37,.03-.41,.49-.11,.57,15.87,4,21.78-.55,36.34-1.55,.83-.06,1.3,1.02,.77,1.66Z"/>
  </svg>
</svg>
