<svg xmlns="http://www.w3.org/2000/svg" width="2048" height="1024" viewBox="0 0 2048 1024">
  <!-- Primer ícono (Water) -->
  <svg x="200" y="100" width="800" height="800" viewBox="0 0 256 256">
    <defs>
      <style>
        .cls-water-bg { fill: #3099e1; } /* Fondo Water */
        .cls-water-icon { fill: #fff; }  /* Color del ícono */
        .cls-water-highlight { fill: #3a9de2; } /* Resalte adicional */
      </style>
    </defs>
    <circle class="cls-water-bg" cx="128" cy="128" r="128"/>
    <path class="cls-water-icon" d="M128.35,206.24c-34.24,.13-56.14-32.39-43.8-64.78,4.18-10.98,10.78-20.6,16.8-30.49,9.43-15.5,15.71-32.11,19.91-49.63,.54-2.25,.94-4.58,1.88-6.66,.93-2.07,2.13-4.29,5.02-4.17,2.83,.12,3.84,2.41,4.87,4.44,.74,1.45,1.09,3.12,1.41,4.73,4.46,22.12,13.91,42.06,26.04,60.93,7.77,12.08,14.46,24.58,14.13,39.75-.57,26.48-19.82,45.79-46.27,45.89Z"/>
    <path class="cls-water-highlight" d="M129.16,193.51c-13.8-1.05-25.57-4.53-32.92-16.53-1.35-2.2-3.13-5.02-1.71-7.44,1.88-3.21,4.73-.71,7.03,.08,17.88,6.19,35.7,6.17,53.52-.27,2.06-.75,4.33-2.73,6.36-.43,1.92,2.18,.05,4.41-.92,6.39-6.52,13.39-18.86,16.49-31.35,18.19Z"/>
  </svg>

  <!-- Segundo ícono (Poison) -->
  <svg x="1048" y="100" width="800" height="800" viewBox="0 0 256 256">
    <defs>
      <style>
        .cls-poison-bg { fill: #9354cb; } /* Fondo Poison */
        .cls-poison-icon { fill: #fff; }  /* Color del ícono */
      </style>
    </defs>
    <circle class="cls-poison-bg" cx="128" cy="128" r="128"/>
    <circle class="cls-poison-icon" cx="159.37" cy="123.2" r="16.8"/>
    <circle class="cls-poison-icon" cx="102.45" cy="86.6" r="28.2"/>
    <path class="cls-poison-icon" d="M197.45,191.55c2.36-1.5,3.12-3.08,3.28-4.91,.05-.38,.08-.77,.08-1.18,0-.27-.03-.52-.06-.76-.16-2.7-1.26-4.54-8.23-6.81-1.21-.39-2.54-.78-3.97-1.17-7.9-2.37-15.56-3.78-24.24-4.53-3.43-.44-6.99-.84-10.63-1.18-1.71-.52-2.31-1.28-2.72-2.44-.55-2.95-1.65-5.7-3.19-8.15-3.79-6.49-9.84-10.25-17.82-10.82-.49-.04-.98-.07-1.48-.08-.04,0-.08,0-.12,0-.03,0-.05,0-.08,0-.09,0-.18,0-.27,0-.27,0-.53,.01-.8,.02-9.24,.17-16.18,4.64-19.99,12.7-.62,1.22-1.15,2.49-1.55,3.82-.93,2.47-1.59,3.97-3.63,4.86-4.92,.42-9.65,.95-14.1,1.57-4.28,.46-8.51,1.21-12.7,2.17-5.5,1.14-10.17,2.43-13.73,3.8-.53,.19-1.04,.4-1.54,.63-4.26,1.9-4.63,3.67-4.66,5.88-.02,.26-.05,.52-.04,.8,0,.16,.03,.31,.04,.47,.06,2.53,.72,4.56,5.71,6.64,.94,.41,1.93,.76,2.94,1.08,1.65,.55,3.48,1.08,5.48,1.59,8.46,2.29,17.02,3.57,25.62,4.37,10.22,1.13,21.52,1.79,32.87,1.8,0,0,0,0,.01,0,0,0,0,0,0,0,.03,0,.06,0,.09,0,10.47,0,20.99-.59,30.65-1.59,10.15-.84,20.2-2.3,30.08-5.18,.46-.13,.91-.26,1.35-.39,.09-.03,.17-.05,.26-.08,2.29-.71,4.79-1.49,6.76-2.73,.08-.05,.16-.1,.25-.15,.02-.02,.05-.03,.07-.05Z"/>
  </svg>
</svg>

