<svg xmlns="http://www.w3.org/2000/svg" width="2048" height="1024" viewBox="0 0 2048 1024">
  <!-- Primer ícono (Water) -->
  <svg x="200" y="100" width="800" height="800" viewBox="0 0 256 256">
    <defs>
      <style>
        .cls-water-bg { fill: #3099e1; } /* Fondo Water */
        .cls-water-icon { fill: #fff; }  /* Color del ícono */
        .cls-water-highlight { fill: #3a9de2; } /* Resalte adicional */
      </style>
    </defs>
    <circle class="cls-water-bg" cx="128" cy="128" r="128"/>
    <path class="cls-water-icon" d="M128.35,206.24c-34.24,.13-56.14-32.39-43.8-64.78,4.18-10.98,10.78-20.6,16.8-30.49,9.43-15.5,15.71-32.11,19.91-49.63,.54-2.25,.94-4.58,1.88-6.66,.93-2.07,2.13-4.29,5.02-4.17,2.83,.12,3.84,2.41,4.87,4.44,.74,1.45,1.09,3.12,1.41,4.73,4.46,22.12,13.91,42.06,26.04,60.93,7.77,12.08,14.46,24.58,14.13,39.75-.57,26.48-19.82,45.79-46.27,45.89Z"/>
    <path class="cls-water-highlight" d="M129.16,193.51c-13.8-1.05-25.57-4.53-32.92-16.53-1.35-2.2-3.13-5.02-1.71-7.44,1.88-3.21,4.73-.71,7.03,.08,17.88,6.19,35.7,6.17,53.52-.27,2.06-.75,4.33-2.73,6.36-.43,1.92,2.18,.05,4.41-.92,6.39-6.52,13.39-18.86,16.49-31.35,18.19Z"/>
  </svg>

  <!-- Segundo ícono (Psychic) -->
  <svg x="1048" y="100" width="800" height="800" viewBox="0 0 256 256">
    <defs>
      <style>
        .cls-psychic-bg { fill: #e96c8c; } /* Fondo Psychic */
        .cls-psychic-icon { fill: #fff; }  /* Color del ícono */
        .cls-psychic-highlight { fill: #e96c8d; } /* Resalte adicional */
      </style>
    </defs>
    <circle class="cls-psychic-bg" cx="128" cy="128" r="128"/>
    <path class="cls-psychic-icon" d="M197.45,99.74c.29,5.25-2.01,9.75-4.39,14.13-5,9.21-4.92,18.19-.37,27.66,10.23,21.3,3.62,33.41-19.59,35.57-11.16,1.04-19.22,5.65-25.41,15.11-11.71,17.9-27.71,17.77-39.56-.25-5.98-9.09-13.76-13.73-24.55-14.79-24.07-2.36-30.54-13.99-20.14-35.92,4.32-9.12,4.22-17.7-.14-26.79-10.21-21.31-3.62-33.41,19.59-35.57,11.15-1.04,19.23-5.65,25.41-15.11,11.49-17.58,27.83-17.94,38.95-.54,7.09,11.09,16.73,15.07,29.13,16.03,13.9,1.08,21.17,8.75,21.06,20.48Z"/>
    <path class="cls-psychic-highlight" d="M174.57,154.66c-20.78,1.82-35.45,9.96-46.37,26.9-11.55-16.67-26-25.21-45.7-26.81,6.99-17.87,8.75-34.96-.85-53,19.9-2.33,34.97-10.36,46.4-26.96,11.3,16.3,25.74,24.84,45.44,26.44-6.94,17.88-8.77,34.96,1.08,53.42Z"/>
  </svg>
</svg>
